<svg width="236" height="112" viewBox="0 0 236 112" fill="none" xmlns="http://www.w3.org/2000/svg">
<rect width="236" height="112" fill="#E5E5E5"/>
<rect width="236" height="112" fill="#7289DA"/>
<path d="M60.6571 40.344C60.6571 42.024 61.2091 43.464 62.3131 44.664C63.4651 45.816 65.4091 46.8 68.1451 47.616C68.2891 47.712 68.2891 47.88 68.1451 48.12C68.0491 48.312 67.8811 48.528 67.6411 48.768C67.4011 49.008 67.1131 49.224 66.7771 49.416C66.4891 49.608 66.2491 49.728 66.0571 49.776C60.6811 49.536 56.5051 50.712 53.5291 53.304C50.5531 55.848 49.0651 59.712 49.0651 64.896C49.0651 66.576 49.3051 68.136 49.7851 69.576C50.3131 71.016 51.0331 72.264 51.9451 73.32C52.9051 74.376 54.0331 75.216 55.3291 75.84C56.6731 76.416 58.1851 76.704 59.8651 76.704C63.8011 76.704 67.0171 75.792 69.5131 73.968C72.0091 72.144 73.8091 69.192 74.9131 65.112C75.0571 64.872 75.2011 64.8 75.3451 64.896C75.5371 64.992 75.6571 65.184 75.7051 65.472C75.1291 68.16 74.4331 70.392 73.6171 72.168C72.8491 73.944 72.1291 74.976 71.4571 75.264C69.7771 76.032 67.7371 76.68 65.3371 77.208C62.9851 77.736 60.5851 78 58.1371 78C56.1211 78 54.3211 77.688 52.7371 77.064C51.2011 76.44 49.9051 75.6 48.8491 74.544C47.7931 73.488 46.9771 72.288 46.4011 70.944C45.8731 69.552 45.6091 68.112 45.6091 66.624C45.6091 64.32 46.0171 62.16 46.8331 60.144C47.6971 58.08 48.8731 56.256 50.3611 54.672C51.8971 53.088 53.6971 51.744 55.7611 50.64C57.8731 49.536 60.1771 48.768 62.6731 48.336C61.1371 47.52 59.9371 46.56 59.0731 45.456C58.2091 44.352 57.7771 43.152 57.7771 41.856C57.7771 40.512 58.1131 39.24 58.7851 38.04C59.5051 36.792 60.4651 35.712 61.6651 34.8C62.9131 33.84 64.3531 33.072 65.9851 32.496C67.6651 31.92 69.4891 31.632 71.4571 31.632C72.6091 31.632 73.7371 31.752 74.8411 31.992C75.9451 32.184 76.9291 32.472 77.7931 32.856C78.6571 33.192 79.3291 33.6 79.8091 34.08C80.3371 34.512 80.6011 34.968 80.6011 35.448C80.6011 35.832 80.5051 36.288 80.3131 36.816C80.1691 37.296 79.9771 37.8 79.7371 38.328C79.5451 38.856 79.3051 39.36 79.0171 39.84C78.7771 40.272 78.5851 40.584 78.4411 40.776C78.3451 40.872 78.2011 40.896 78.0091 40.848C77.8651 40.752 77.8171 40.608 77.8651 40.416C78.1531 39.888 78.3691 39.312 78.5131 38.688C78.6571 38.016 78.5371 37.368 78.1531 36.744C77.6251 35.88 76.6171 35.016 75.1291 34.152C73.6411 33.288 71.9371 32.856 70.0171 32.856C68.4331 32.856 67.0651 33.072 65.9131 33.504C64.7611 33.936 63.7771 34.512 62.9611 35.232C62.1931 35.952 61.6171 36.768 61.2331 37.68C60.8491 38.544 60.6571 39.432 60.6571 40.344ZM138.283 72.6C138.379 72.456 138.523 72.408 138.715 72.456C138.955 72.456 139.051 72.576 139.003 72.816C137.947 74.4 136.747 75.672 135.403 76.632C134.059 77.544 132.619 78 131.083 78C128.971 78 127.171 77.4 125.683 76.2C124.195 75 122.899 73.392 121.795 71.376C120.739 69.312 119.851 66.936 119.131 64.248C118.411 61.56 117.739 58.752 117.115 55.824C117.115 55.536 117.211 55.32 117.403 55.176C117.643 55.08 117.907 54.984 118.195 54.888C118.483 54.744 118.891 54.552 119.419 54.312C119.563 54.264 119.755 54.288 119.995 54.384C120.283 54.432 120.643 54.504 121.075 54.6C121.507 54.648 122.011 54.672 122.587 54.672C123.211 54.672 123.931 54.576 124.747 54.384C127.243 53.808 129.187 52.656 130.579 50.928C131.971 49.2 132.667 47.04 132.667 44.448C132.667 41.376 131.755 38.832 129.931 36.816C128.107 34.8 125.587 33.672 122.371 33.432C121.027 34.968 119.827 36.96 118.771 39.408C117.763 41.808 116.827 44.616 115.963 47.832C114.571 53.112 112.915 57.672 110.995 61.512C109.123 65.304 107.035 68.424 104.731 70.872C102.427 73.32 99.9312 75.12 97.2432 76.272C94.5552 77.424 91.7232 78 88.7472 78C87.3072 78 86.0592 77.784 85.0032 77.352C83.9952 76.92 83.1312 76.32 82.4112 75.552C81.7392 74.784 81.2352 73.92 80.8992 72.96C80.5632 71.952 80.3952 70.896 80.3952 69.792C80.3952 67.968 80.8752 66.168 81.8352 64.392C82.8432 62.568 84.1632 61.248 85.7952 60.432C86.2272 60.336 86.3952 60.528 86.2992 61.008C84.8592 61.728 83.7792 62.76 83.0592 64.104C82.3872 65.4 82.0512 66.768 82.0512 68.208C82.0512 70.704 82.7952 72.6 84.2832 73.896C85.7712 75.192 87.9072 75.84 90.6912 75.84C93.1872 75.84 95.4432 75.48 97.4592 74.76C99.5232 73.992 101.395 72.696 103.075 70.872C104.755 69 106.315 66.48 107.755 63.312C109.195 60.144 110.587 56.136 111.931 51.288C113.083 47.16 114.331 43.632 115.675 40.704C117.019 37.728 118.603 35.28 120.427 33.36C111.403 33.552 104.539 36.984 99.8352 43.656C99.6912 43.752 99.5232 43.752 99.3312 43.656C99.1872 43.56 99.1632 43.392 99.2592 43.152C101.563 39.792 104.635 37.104 108.475 35.088C112.315 33.024 116.947 31.896 122.371 31.704C123.187 31.08 124.051 30.552 124.963 30.12C125.875 29.64 126.883 29.28 127.987 29.04C128.227 29.04 128.347 29.136 128.347 29.328C128.347 29.472 128.227 29.592 127.987 29.688C126.595 30.072 125.323 30.72 124.171 31.632C125.851 31.632 127.387 31.968 128.779 32.64C130.171 33.264 131.371 34.104 132.379 35.16C133.387 36.216 134.155 37.416 134.683 38.76C135.259 40.056 135.547 41.424 135.547 42.864C135.547 44.784 135.115 46.56 134.251 48.192C133.387 49.824 132.235 51.216 130.795 52.368C129.403 53.52 127.771 54.408 125.899 55.032C124.075 55.608 122.179 55.848 120.211 55.752C120.979 59.88 121.819 63.24 122.731 65.832C123.643 68.424 124.651 70.464 125.755 71.952C126.859 73.392 128.035 74.376 129.283 74.904C130.579 75.432 131.947 75.696 133.387 75.696C134.395 75.696 135.259 75.456 135.979 74.976C136.747 74.448 137.515 73.656 138.283 72.6ZM188.072 31.848C190.184 32.136 192.056 32.736 193.688 33.648C195.32 34.512 196.688 35.592 197.792 36.888C198.896 38.184 199.736 39.624 200.312 41.208C200.888 42.744 201.176 44.352 201.176 46.032C201.176 48.24 200.768 50.304 199.952 52.224C199.184 54.096 198.056 55.752 196.568 57.192C195.128 58.584 193.328 59.688 191.168 60.504C189.056 61.32 186.632 61.728 183.896 61.728C180.68 61.728 178.112 60.936 176.192 59.352C173.312 65.832 169.88 70.56 165.896 73.536C161.96 76.512 157.64 78 152.936 78C151.112 78 149.504 77.712 148.112 77.136C146.768 76.512 145.616 75.72 144.656 74.76C143.744 73.8 143.048 72.696 142.568 71.448C142.136 70.152 141.92 68.832 141.92 67.488C141.92 66.576 142.04 65.664 142.28 64.752C142.568 63.792 142.928 62.904 143.36 62.088C143.84 61.224 144.416 60.456 145.088 59.784C145.76 59.064 146.504 58.512 147.32 58.128C147.8 58.032 147.944 58.2 147.752 58.632C146.36 59.4 145.304 60.432 144.584 61.728C143.912 63.024 143.576 64.416 143.576 65.904C143.576 67.296 143.816 68.592 144.296 69.792C144.824 70.992 145.568 72.048 146.528 72.96C147.488 73.872 148.664 74.592 150.056 75.12C151.448 75.6 153.056 75.84 154.88 75.84C157.088 75.84 159.104 75.552 160.928 74.976C162.8 74.4 164.504 73.416 166.04 72.024C167.624 70.584 169.088 68.688 170.432 66.336C171.776 63.936 173.072 60.936 174.32 57.336C173.792 56.568 173.336 55.728 172.952 54.816C172.568 53.904 172.256 52.896 172.016 51.792C172.064 51.6 172.16 51.48 172.304 51.432C172.448 51.336 172.568 51.36 172.664 51.504C173.096 53.376 173.768 54.936 174.68 56.184C175.16 54.696 175.664 53.04 176.192 51.216C177.296 47.136 178.496 43.632 179.792 40.704C181.136 37.728 182.72 35.304 184.544 33.432C184.256 33.384 183.944 33.36 183.608 33.36C183.32 33.36 183.008 33.36 182.672 33.36C177.584 33.36 173.264 34.584 169.712 37.032C166.208 39.48 163.76 43.104 162.368 47.904C162.224 48.048 162.08 48.072 161.936 47.976C161.792 47.832 161.72 47.568 161.72 47.184C163.352 42.384 166.064 38.592 169.856 35.808C173.648 33.024 178.664 31.632 184.904 31.632C185.192 31.632 185.456 31.632 185.696 31.632C185.984 31.632 186.248 31.656 186.488 31.704C188.12 30.456 190.016 29.568 192.176 29.04C192.416 29.04 192.536 29.112 192.536 29.256C192.584 29.4 192.488 29.52 192.248 29.616C191.432 29.856 190.688 30.168 190.016 30.552C189.344 30.888 188.696 31.32 188.072 31.848ZM184.616 60.288C186.632 60.288 188.456 59.952 190.088 59.28C191.768 58.608 193.184 57.696 194.336 56.544C195.536 55.344 196.448 53.952 197.072 52.368C197.696 50.784 198.008 49.08 198.008 47.256C198.008 45.576 197.744 43.992 197.216 42.504C196.736 40.968 195.992 39.624 194.984 38.472C194.024 37.272 192.8 36.264 191.312 35.448C189.872 34.584 188.216 33.984 186.344 33.648C185.048 35.232 183.896 37.2 182.888 39.552C181.88 41.904 180.968 44.64 180.152 47.76C179.144 51.6 177.992 55.08 176.696 58.2C178.616 59.592 181.256 60.288 184.616 60.288Z" fill="#2C2F33"/>
</svg>
